<svg xmlns="http://www.w3.org/2000/svg" viewBox="0 0 776.15 224.5">
  <title>Emisha</title>
  <g id="Layer_2" data-name="Layer 2">
    <g id="Layer_6" data-name="Layer 6">
      <g>
        <polygon points="91.5 127.5 91.5 165.5 0.5 101.5 27.5 82.5 91.5 127.5" style="fill: #263659"/>
        <polygon points="0 102 0 100.7 0 63 92 0 92 39 0 102" style="fill: #3dade7"/>
        <polygon points="90.5 224.5 90.5 186.5 155.5 141.5 182.5 160.5 90.5 224.5" style="fill: #3dade7"/>
        <polygon points="91.5 61.5 182.5 124.5 182.5 162.5 91.5 99.5 91.5 61.5" style="fill: #263659"/>
        <circle cx="141" cy="52" r="21.5" style="fill: #263659"/>
        <circle cx="30" cy="175" r="21.5" style="fill: #3dade7"/>
      </g>
      <text transform="translate(203.3 165.12)" style="font-size: 150px;fill: #263659;font-family: Montserrat-SemiBold, Montserrat;font-weight: 600">Emisha</text>
      <text transform="translate(216.89 198.07)" style="font-size: 30px;font-family: Montserrat-Medium, Montserrat;font-weight: 500;letter-spacing: 0.28199869791666665em">ww<tspan x="70.86" y="0" style="letter-spacing: 0.25701497395833334em">w</tspan><tspan x="105.54" y="0" style="letter-spacing: 0.27801106770833334em">.</tspan><tspan x="120.69" y="0" style="letter-spacing: 0.289990234375em">emisha</tspan><tspan x="284.73" y="0" style="letter-spacing: 0.2779947916666667em">.</tspan><tspan x="299.88" y="0" style="letter-spacing: 0.28203125em">c</tspan><tspan x="325.47" y="0" style="letter-spacing: 0.28997395833333334em">ommuni</tspan><tspan x="509.25" y="0" style="letter-spacing: 0.27998046875em">t</tspan><tspan x="530.07" y="0" style="letter-spacing: 0.29000651041666664em">y</tspan></text>
    </g>
  </g>
</svg>
