<svg width="777" height="225" viewBox="0 0 777 225" fill="none" xmlns="http://www.w3.org/2000/svg">
<g clip-path="url(#clip0)">
<path d="M91.5 127.5V165.5L0.5 101.5L27.5 82.5L91.5 127.5Z" fill="#C4C4C4"/>
<path d="M0 102V100.7V63L92 0V39L0 102Z" fill="#3DADE7"/>
<path d="M90.5 224.5V186.5L155.5 141.5L182.5 160.5L90.5 224.5Z" fill="#3DADE7"/>
<path d="M91.5 61.5L182.5 124.5V162.5L91.5 99.5V61.5Z" fill="#C4C4C4"/>
<path d="M141 73.5C152.874 73.5 162.5 63.8741 162.5 52C162.5 40.1259 152.874 30.5 141 30.5C129.126 30.5 119.5 40.1259 119.5 52C119.5 63.8741 129.126 73.5 141 73.5Z" fill="#C4C4C4"/>
<path d="M30 196.5C41.8741 196.5 51.5 186.874 51.5 175C51.5 163.126 41.8741 153.5 30 153.5C18.1259 153.5 8.5 163.126 8.5 175C8.5 186.874 18.1259 196.5 30 196.5Z" fill="#3DADE7"/>
<path d="M291.5 55.27V71.92H235.55V99.67H285.8V115.42H235.55V143.47H293.3V160.12H217.85V55.27H291.5ZM330.395 116.92V160.12H313.595V80.32H330.395V94.87C332.795 89.97 336.395 86.12 341.195 83.32C346.095 80.52 351.345 79.12 356.945 79.12C369.545 79.12 378.095 84.32 382.595 94.72C390.495 84.32 400.345 79.12 412.145 79.12C421.145 79.12 428.395 81.87 433.895 87.37C439.495 92.87 442.295 100.82 442.295 111.22V160.12H425.495V116.32C425.495 101.62 419.395 94.27 407.195 94.27C401.495 94.27 396.495 96.12 392.195 99.82C387.995 103.42 385.795 108.72 385.595 115.72V160.12H368.795V116.32C368.795 108.72 367.445 103.17 364.745 99.67C362.045 96.07 357.795 94.27 351.995 94.27C346.195 94.27 341.145 96.22 336.845 100.12C332.545 103.92 330.395 109.52 330.395 116.92ZM482.445 160.12H465.645V80.32H482.445V160.12ZM466.695 64.42C464.595 62.32 463.545 59.82 463.545 56.92C463.545 54.02 464.595 51.52 466.695 49.42C468.795 47.32 471.295 46.27 474.195 46.27C477.095 46.27 479.595 47.32 481.695 49.42C483.795 51.52 484.845 54.02 484.845 56.92C484.845 59.82 483.795 62.32 481.695 64.42C479.595 66.52 477.095 67.57 474.195 67.57C471.295 67.57 468.795 66.52 466.695 64.42ZM563.657 136.27C563.657 143.87 560.907 149.97 555.407 154.57C549.907 159.07 542.857 161.32 534.257 161.32C528.457 161.32 522.407 160.27 516.107 158.17C509.907 156.07 504.407 153.12 499.607 149.32L507.707 136.27C517.007 143.27 526.007 146.77 534.707 146.77C538.507 146.77 541.507 145.92 543.707 144.22C545.907 142.42 547.007 140.17 547.007 137.47C547.007 133.47 541.707 129.87 531.107 126.67C530.307 126.37 529.707 126.17 529.307 126.07C512.707 121.57 504.407 114.07 504.407 103.57C504.407 96.17 507.257 90.27 512.957 85.87C518.757 81.37 526.257 79.12 535.457 79.12C544.657 79.12 553.357 81.82 561.557 87.22L555.257 99.67C548.757 95.37 541.707 93.22 534.107 93.22C530.107 93.22 526.857 93.97 524.357 95.47C521.857 96.87 520.607 99.02 520.607 101.92C520.607 104.52 521.907 106.42 524.507 107.62C526.307 108.52 528.807 109.37 532.007 110.17C535.307 110.97 538.207 111.77 540.707 112.57C543.207 113.37 545.607 114.27 547.907 115.27C550.307 116.27 552.857 117.67 555.557 119.47C560.957 123.07 563.657 128.67 563.657 136.27ZM599.486 116.92V160.12H582.686V48.97H599.486V94.87C601.886 89.97 605.486 86.12 610.286 83.32C615.186 80.52 620.436 79.12 626.036 79.12C635.036 79.12 642.286 81.87 647.786 87.37C653.386 92.87 656.186 100.82 656.186 111.22V160.12H639.386V116.32C639.386 101.62 633.286 94.27 621.086 94.27C615.286 94.27 610.236 96.22 605.936 100.12C601.636 103.92 599.486 109.52 599.486 116.92ZM744.309 160.12H729.009V149.47C722.409 157.37 713.559 161.32 702.459 161.32C694.159 161.32 687.259 158.97 681.759 154.27C676.359 149.57 673.659 143.32 673.659 135.52C673.659 127.62 676.559 121.72 682.359 117.82C688.159 113.92 696.009 111.97 705.909 111.97H727.659V108.97C727.659 98.37 721.759 93.07 709.959 93.07C702.559 93.07 694.859 95.77 686.859 101.17L679.359 90.67C689.059 82.97 700.059 79.12 712.359 79.12C721.759 79.12 729.409 81.52 735.309 86.32C741.309 91.02 744.309 98.47 744.309 108.67V160.12ZM727.509 130.42V123.67H708.609C696.509 123.67 690.459 127.47 690.459 135.07C690.459 138.97 691.959 141.97 694.959 144.07C697.959 146.07 702.109 147.07 707.409 147.07C712.809 147.07 717.509 145.57 721.509 142.57C725.509 139.57 727.509 135.52 727.509 130.42Z" fill="white"/>
<path d="M314.54 181.17L308.6 197.07H305.84L301.25 185.01L296.6 197.07H293.84L287.93 181.17H290.66L295.28 193.83L300.08 181.17H302.51L307.22 193.89L311.96 181.17H314.54ZM317.156 197.25C316.596 197.25 316.116 197.06 315.716 196.68C315.316 196.28 315.116 195.78 315.116 195.18C315.116 194.6 315.316 194.12 315.716 193.74C316.116 193.34 316.596 193.14 317.156 193.14C317.716 193.14 318.186 193.33 318.566 193.71C318.946 194.09 319.136 194.58 319.136 195.18C319.136 195.78 318.936 196.28 318.536 196.68C318.156 197.06 317.696 197.25 317.156 197.25ZM337.282 189.21C337.282 189.43 337.262 189.72 337.222 190.08H324.322C324.502 191.48 325.112 192.61 326.152 193.47C327.212 194.31 328.522 194.73 330.082 194.73C331.982 194.73 333.512 194.09 334.672 192.81L336.262 194.67C335.542 195.51 334.642 196.15 333.562 196.59C332.502 197.03 331.312 197.25 329.992 197.25C328.312 197.25 326.822 196.91 325.522 196.23C324.222 195.53 323.212 194.56 322.492 193.32C321.792 192.08 321.442 190.68 321.442 189.12C321.442 187.58 321.782 186.19 322.462 184.95C323.162 183.71 324.112 182.75 325.312 182.07C326.532 181.37 327.902 181.02 329.422 181.02C330.942 181.02 332.292 181.37 333.472 182.07C334.672 182.75 335.602 183.71 336.262 184.95C336.942 186.19 337.282 187.61 337.282 189.21ZM329.422 183.45C328.042 183.45 326.882 183.87 325.942 184.71C325.022 185.55 324.482 186.65 324.322 188.01H334.522C334.362 186.67 333.812 185.58 332.872 184.74C331.952 183.88 330.802 183.45 329.422 183.45ZM361.171 181.02C363.171 181.02 364.751 181.6 365.911 182.76C367.091 183.92 367.681 185.64 367.681 187.92V197.07H364.801V188.25C364.801 186.71 364.441 185.55 363.721 184.77C363.021 183.99 362.011 183.6 360.691 183.6C359.231 183.6 358.071 184.06 357.211 184.98C356.351 185.88 355.921 187.18 355.921 188.88V197.07H353.041V188.25C353.041 186.71 352.681 185.55 351.961 184.77C351.261 183.99 350.251 183.6 348.931 183.6C347.471 183.6 346.311 184.06 345.451 184.98C344.591 185.88 344.161 187.18 344.161 188.88V197.07H341.281V181.17H344.041V183.54C344.621 182.72 345.381 182.1 346.321 181.68C347.261 181.24 348.331 181.02 349.531 181.02C350.771 181.02 351.871 181.27 352.831 181.77C353.791 182.27 354.531 183 355.051 183.96C355.651 183.04 356.481 182.32 357.541 181.8C358.621 181.28 359.831 181.02 361.171 181.02ZM372.98 181.17H375.86V197.07H372.98V181.17ZM374.42 178.11C373.86 178.11 373.39 177.93 373.01 177.57C372.65 177.21 372.47 176.77 372.47 176.25C372.47 175.73 372.65 175.29 373.01 174.93C373.39 174.55 373.86 174.36 374.42 174.36C374.98 174.36 375.44 174.54 375.8 174.9C376.18 175.24 376.37 175.67 376.37 176.19C376.37 176.73 376.18 177.19 375.8 177.57C375.44 177.93 374.98 178.11 374.42 178.11ZM385.919 197.25C384.619 197.25 383.369 197.08 382.169 196.74C380.969 196.38 380.029 195.93 379.349 195.39L380.549 193.11C381.249 193.61 382.099 194.01 383.099 194.31C384.099 194.61 385.109 194.76 386.129 194.76C388.649 194.76 389.909 194.04 389.909 192.6C389.909 192.12 389.739 191.74 389.399 191.46C389.059 191.18 388.629 190.98 388.109 190.86C387.609 190.72 386.889 190.57 385.949 190.41C384.669 190.21 383.619 189.98 382.799 189.72C381.999 189.46 381.309 189.02 380.729 188.4C380.149 187.78 379.859 186.91 379.859 185.79C379.859 184.35 380.459 183.2 381.659 182.34C382.859 181.46 384.469 181.02 386.489 181.02C387.549 181.02 388.609 181.15 389.669 181.41C390.729 181.67 391.599 182.02 392.279 182.46L391.049 184.74C389.749 183.9 388.219 183.48 386.459 183.48C385.239 183.48 384.309 183.68 383.669 184.08C383.029 184.48 382.709 185.01 382.709 185.67C382.709 186.19 382.889 186.6 383.249 186.9C383.609 187.2 384.049 187.42 384.569 187.56C385.109 187.7 385.859 187.86 386.819 188.04C388.099 188.26 389.129 188.5 389.909 188.76C390.709 189 391.389 189.42 391.949 190.02C392.509 190.62 392.789 191.46 392.789 192.54C392.789 193.98 392.169 195.13 390.929 195.99C389.709 196.83 388.039 197.25 385.919 197.25ZM404.878 181.02C406.898 181.02 408.498 181.61 409.678 182.79C410.878 183.95 411.478 185.66 411.478 187.92V197.07H408.598V188.25C408.598 186.71 408.228 185.55 407.488 184.77C406.748 183.99 405.688 183.6 404.308 183.6C402.748 183.6 401.518 184.06 400.618 184.98C399.718 185.88 399.268 187.18 399.268 188.88V197.07H396.388V174.81H399.268V183.42C399.868 182.66 400.648 182.07 401.608 181.65C402.588 181.23 403.678 181.02 404.878 181.02ZM422.598 181.02C424.798 181.02 426.478 181.56 427.638 182.64C428.818 183.72 429.408 185.33 429.408 187.47V197.07H426.678V194.97C426.198 195.71 425.508 196.28 424.608 196.68C423.728 197.06 422.678 197.25 421.458 197.25C419.678 197.25 418.248 196.82 417.168 195.96C416.108 195.1 415.578 193.97 415.578 192.57C415.578 191.17 416.088 190.05 417.108 189.21C418.128 188.35 419.748 187.92 421.968 187.92H426.528V187.35C426.528 186.11 426.168 185.16 425.448 184.5C424.728 183.84 423.668 183.51 422.268 183.51C421.328 183.51 420.408 183.67 419.508 183.99C418.608 184.29 417.848 184.7 417.228 185.22L416.028 183.06C416.848 182.4 417.828 181.9 418.968 181.56C420.108 181.2 421.318 181.02 422.598 181.02ZM421.938 195.03C423.038 195.03 423.988 194.79 424.788 194.31C425.588 193.81 426.168 193.11 426.528 192.21V189.99H422.088C419.648 189.99 418.428 190.81 418.428 192.45C418.428 193.25 418.738 193.88 419.358 194.34C419.978 194.8 420.838 195.03 421.938 195.03ZM435.428 197.25C434.868 197.25 434.388 197.06 433.988 196.68C433.588 196.28 433.388 195.78 433.388 195.18C433.388 194.6 433.588 194.12 433.988 193.74C434.388 193.34 434.868 193.14 435.428 193.14C435.988 193.14 436.458 193.33 436.838 193.71C437.218 194.09 437.408 194.58 437.408 195.18C437.408 195.78 437.208 196.28 436.808 196.68C436.428 197.06 435.968 197.25 435.428 197.25ZM448.113 197.25C446.493 197.25 445.043 196.9 443.763 196.2C442.503 195.5 441.513 194.54 440.793 193.32C440.073 192.08 439.713 190.68 439.713 189.12C439.713 187.56 440.073 186.17 440.793 184.95C441.513 183.71 442.503 182.75 443.763 182.07C445.043 181.37 446.493 181.02 448.113 181.02C449.553 181.02 450.833 181.31 451.953 181.89C453.093 182.47 453.973 183.31 454.593 184.41L452.403 185.82C451.903 185.06 451.283 184.49 450.543 184.11C449.803 183.73 448.983 183.54 448.083 183.54C447.043 183.54 446.103 183.77 445.263 184.23C444.443 184.69 443.793 185.35 443.313 186.21C442.853 187.05 442.623 188.02 442.623 189.12C442.623 190.24 442.853 191.23 443.313 192.09C443.793 192.93 444.443 193.58 445.263 194.04C446.103 194.5 447.043 194.73 448.083 194.73C448.983 194.73 449.803 194.54 450.543 194.16C451.283 193.78 451.903 193.21 452.403 192.45L454.593 193.83C453.973 194.93 453.093 195.78 451.953 196.38C450.833 196.96 449.553 197.25 448.113 197.25ZM464.897 197.25C463.317 197.25 461.897 196.9 460.637 196.2C459.377 195.5 458.387 194.54 457.667 193.32C456.967 192.08 456.617 190.68 456.617 189.12C456.617 187.56 456.967 186.17 457.667 184.95C458.387 183.71 459.377 182.75 460.637 182.07C461.897 181.37 463.317 181.02 464.897 181.02C466.477 181.02 467.887 181.37 469.127 182.07C470.387 182.75 471.367 183.71 472.067 184.95C472.787 186.17 473.147 187.56 473.147 189.12C473.147 190.68 472.787 192.08 472.067 193.32C471.367 194.54 470.387 195.5 469.127 196.2C467.887 196.9 466.477 197.25 464.897 197.25ZM464.897 194.73C465.917 194.73 466.827 194.5 467.627 194.04C468.447 193.56 469.087 192.9 469.547 192.06C470.007 191.2 470.237 190.22 470.237 189.12C470.237 188.02 470.007 187.05 469.547 186.21C469.087 185.35 468.447 184.69 467.627 184.23C466.827 183.77 465.917 183.54 464.897 183.54C463.877 183.54 462.957 183.77 462.137 184.23C461.337 184.69 460.697 185.35 460.217 186.21C459.757 187.05 459.527 188.02 459.527 189.12C459.527 190.22 459.757 191.2 460.217 192.06C460.697 192.9 461.337 193.56 462.137 194.04C462.957 194.5 463.877 194.73 464.897 194.73ZM497.02 181.02C499.02 181.02 500.6 181.6 501.76 182.76C502.94 183.92 503.53 185.64 503.53 187.92V197.07H500.65V188.25C500.65 186.71 500.29 185.55 499.57 184.77C498.87 183.99 497.86 183.6 496.54 183.6C495.08 183.6 493.92 184.06 493.06 184.98C492.2 185.88 491.77 187.18 491.77 188.88V197.07H488.89V188.25C488.89 186.71 488.53 185.55 487.81 184.77C487.11 183.99 486.1 183.6 484.78 183.6C483.32 183.6 482.16 184.06 481.3 184.98C480.44 185.88 480.01 187.18 480.01 188.88V197.07H477.13V181.17H479.89V183.54C480.47 182.72 481.23 182.1 482.17 181.68C483.11 181.24 484.18 181.02 485.38 181.02C486.62 181.02 487.72 181.27 488.68 181.77C489.64 182.27 490.38 183 490.9 183.96C491.5 183.04 492.33 182.32 493.39 181.8C494.47 181.28 495.68 181.02 497.02 181.02ZM528.72 181.02C530.72 181.02 532.3 181.6 533.46 182.76C534.64 183.92 535.23 185.64 535.23 187.92V197.07H532.35V188.25C532.35 186.71 531.99 185.55 531.27 184.77C530.57 183.99 529.56 183.6 528.24 183.6C526.78 183.6 525.62 184.06 524.76 184.98C523.9 185.88 523.47 187.18 523.47 188.88V197.07H520.59V188.25C520.59 186.71 520.23 185.55 519.51 184.77C518.81 183.99 517.8 183.6 516.48 183.6C515.02 183.6 513.86 184.06 513 184.98C512.14 185.88 511.71 187.18 511.71 188.88V197.07H508.83V181.17H511.59V183.54C512.17 182.72 512.93 182.1 513.87 181.68C514.81 181.24 515.88 181.02 517.08 181.02C518.32 181.02 519.42 181.27 520.38 181.77C521.34 182.27 522.08 183 522.6 183.96C523.2 183.04 524.03 182.32 525.09 181.8C526.17 181.28 527.38 181.02 528.72 181.02ZM555.349 181.17V197.07H552.619V194.67C552.039 195.49 551.269 196.13 550.309 196.59C549.369 197.03 548.339 197.25 547.219 197.25C545.099 197.25 543.429 196.67 542.209 195.51C540.989 194.33 540.379 192.6 540.379 190.32V181.17H543.259V189.99C543.259 191.53 543.629 192.7 544.369 193.5C545.109 194.28 546.169 194.67 547.549 194.67C549.069 194.67 550.269 194.21 551.149 193.29C552.029 192.37 552.469 191.07 552.469 189.39V181.17H555.349ZM569.322 181.02C571.342 181.02 572.942 181.61 574.122 182.79C575.322 183.95 575.922 185.66 575.922 187.92V197.07H573.042V188.25C573.042 186.71 572.672 185.55 571.932 184.77C571.192 183.99 570.132 183.6 568.752 183.6C567.192 183.6 565.962 184.06 565.062 184.98C564.162 185.88 563.712 187.18 563.712 188.88V197.07H560.832V181.17H563.592V183.57C564.172 182.75 564.952 182.12 565.932 181.68C566.932 181.24 568.062 181.02 569.322 181.02ZM581.251 181.17H584.131V197.07H581.251V181.17ZM582.691 178.11C582.131 178.11 581.661 177.93 581.281 177.57C580.921 177.21 580.741 176.77 580.741 176.25C580.741 175.73 580.921 175.29 581.281 174.93C581.661 174.55 582.131 174.36 582.691 174.36C583.251 174.36 583.711 174.54 584.071 174.9C584.451 175.24 584.641 175.67 584.641 176.19C584.641 176.73 584.451 177.19 584.071 177.57C583.711 177.93 583.251 178.11 582.691 178.11ZM598.57 196.14C598.15 196.5 597.63 196.78 597.01 196.98C596.39 197.16 595.75 197.25 595.09 197.25C593.49 197.25 592.25 196.82 591.37 195.96C590.49 195.1 590.05 193.87 590.05 192.27V183.54H587.35V181.17H590.05V177.69H592.93V181.17H597.49V183.54H592.93V192.15C592.93 193.01 593.14 193.67 593.56 194.13C594 194.59 594.62 194.82 595.42 194.82C596.3 194.82 597.05 194.57 597.67 194.07L598.57 196.14ZM615.829 181.17L608.119 198.66C607.439 200.28 606.639 201.42 605.719 202.08C604.819 202.74 603.729 203.07 602.449 203.07C601.669 203.07 600.909 202.94 600.169 202.68C599.449 202.44 598.849 202.08 598.369 201.6L599.599 199.44C600.419 200.22 601.369 200.61 602.449 200.61C603.149 200.61 603.729 200.42 604.189 200.04C604.669 199.68 605.099 199.05 605.479 198.15L605.989 197.04L598.969 181.17H601.969L607.519 193.89L613.009 181.17H615.829Z" fill="white"/>
</g>
<defs>
<clipPath id="clip0">
<rect width="776.15" height="224.5" fill="white"/>
</clipPath>
</defs>
</svg>
